<svg xmlns="http://www.w3.org/2000/svg" viewBox="0 0 1500 1500" width="1500" height="1500">
    <defs>
        <clipPath id="a">
            <path d="M0 0h584.3v521.2H0z"/>
        </clipPath>
    </defs>
    <g clip-path="url(#a)" transform="translate(40.0 218.0) rotate(0.0 697.0 622.0) scale(2.3857607393462263 2.3867996930161164) translate(-0.0 -0.0)">
        <path d="M173.8 508.2C-2 479.5-51.1 297.6 57.2 188.1 155.8 88.4 104.6 10.7 266.4.5c143.3-9 285.9 108.6 315.2 311.6 29.3 202.3-187.4 232-407.8 196.1z" style="fill:#fece2f"/>
    </g>
    <defs>
        <clipPath id="b">
            <path d="M0 0h509.5v325.2H0z"/>
        </clipPath>
    </defs>
    <g clip-path="url(#b)" transform="translate(194.0 81.0) rotate(0.0 607.5 388.0) scale(2.384690873405299 2.3862238622386225) translate(-0.0 -0.0)">
        <ellipse transform="matrix(0.763 -0.6464 0.6464 0.763 -73.6981 110.7549)" cx="114.2" cy="155.9" rx="8" ry="7.1" style="fill:#1a1a1a"/>
        <ellipse transform="matrix(0.763 -0.6464 0.6464 0.763 56.6833 290.647)" cx="424.7" cy="68" rx="8" ry="7.1" style="fill:#1a1a1a"/>
        <path d="M72.2 81.1c-1.5 0-2.7-.4-3.7-1.3-.7-.6-1.2-1.5-1.6-2.7-1.7-4.7-.5-10.2 3-13.8 1.3-1.3 2.6-1.9 3.9-1.8 1 .1 1.9.8 2.4 1.9.3.8.2 1.7-.3 2.4-.4.4-1 .5-1.5.1-.4-.4-.5-1-.1-1.5.1-.1 0-.2 0-.2-.1-.3-.4-.5-.6-.5-.8-.1-1.6.6-2.2 1.2-2.9 3-3.9 7.7-2.5 11.6.3.8.7 1.4 1.1 1.9 1.5 1.4 4.3.5 5.4.1 6.4-2.7 10.9-8.4 15.3-14.6.8-1.2 1.6-2.3 2.4-3.5-.7-.4-1.4-.8-1.9-1.5-1-1.2-1.5-2.8-1.6-4.9-.2-2.8.9-5.8 2.7-7.6 1.2-1.2 2.6-1.8 4.2-1.7 1 .1 1.9.5 2.5 1.1.7.8.8 2 .8 2.8-.2 3.7-1.4 7-3.3 10.3.4 0 .8 0 1.3-.1 1.9-.4 3.7-1.6 5.2-2.7 5.2-4 9.6-9.1 12.8-14.8-.6-.4-1.1-.9-1.5-1.5-.6-1-.8-2.2-.3-3.2.5-1.3 2.1-2.4 3.6-1.8.7.3 1.2.8 1.5 1.5.5 1.2.2 2.7-.3 3.8 1.5-.1 3-.9 4.5-1.8 6.7-4 11.9-7.8 15.2-13.1.3-.5.9-.6 1.4-.3.5.3.6.9.3 1.4-3.8 6-9.9 10.2-15.9 13.8-1.9 1.2-4 2.3-6.3 2h-.3c-3.3 6.1-8 11.5-13.5 15.7-1.7 1.3-3.7 2.6-6 3.1-1 .2-1.9.2-2.9.1-.9 1.4-1.8 2.7-2.8 4.1-4.6 6.4-9.3 12.4-16.2 15.3-1.7.5-3.1.7-4.2.7zM96 46.8c-.9 0-1.7.3-2.4 1.1-1.4 1.3-2.2 3.7-2 6 .1 1.6.5 2.9 1.2 3.7.4.4.8.8 1.4 1 1.9-3.2 3.2-6.4 3.4-9.9 0-.5 0-1.1-.3-1.4-.2-.2-.5-.3-1-.4-.2-.1-.3-.1-.3-.1zm20.4-10.1c-.3 0-.7.3-.8.6-.2.5 0 1 .2 1.4.2.3.4.6.7.8.4-.9.6-1.9.4-2.5-.1-.2-.2-.3-.3-.3h-.2zm389.9 187.1c-.2 0-.3 0-.5-.1-3.8-1.9-5.8-6.3-6-13-3.4.7-7.1 1-9.9-1.2-1.2-.9-2.1-2.2-2.9-4.1-2.1-5-1.9-10.3-1.6-16.3.1-1.5.2-3.2.5-5-4.6.5-9.9.3-12.6-3.6-1.8-2.5-1.7-5.6-1.4-8.9.1-1.9.5-6.9 4.2-8.4.5-.2 1.2 0 1.4.6.2.5 0 1.2-.6 1.4-2.2.9-2.7 4.1-2.9 6.7-.2 2.8-.3 5.5 1.1 7.5 2.2 3.2 7.2 3.1 11.3 2.6.4-1.3.9-2.6 1.6-3.8.8-1.3 2-2.5 3.4-3.4 2.1-1.3 4.2-.3 5.2 1.2s1 3.9-.9 5.3c-.3.3-.7.5-1.1.7-2.1 1.1-4.4 1.5-6.6 1.8-.3 1.7-.5 3.5-.6 5.4-.3 5.7-.5 10.8 1.4 15.3.6 1.5 1.4 2.5 2.2 3.2 2.2 1.7 5.5 1.3 8.6.7 0-1.5.2-3.1 1.1-4.5.7-1 1.8-1.7 2.9-1.9.9-.2 1.9 0 2.6.6.1.1.2.2.2.3 1.3 1.8.4 4.3-1.1 5.6-1.1.9-2.4 1.4-3.6 1.6.1 6.1 1.8 10 4.9 11.6.5.3.7.9.5 1.4-.1.5-.4.7-.8.7zm-1.9-19.6h-.3c-.6.1-1.2.5-1.5 1-.5.8-.7 1.8-.8 2.8.8-.2 1.6-.6 2.3-1.1.8-.6 1.2-1.8.8-2.6-.1-.1-.3-.1-.5-.1zm-10.9-27.8c-.3 0-.6.1-.9.3-1.1.7-2 1.6-2.7 2.7-.5.8-.8 1.5-1.1 2.4 1.8-.3 3.5-.7 5-1.5.3-.2.6-.3.8-.5 1-.7.8-1.8.4-2.5-.4-.5-.9-.9-1.5-.9zm-9 148.8h-.3c-1.4-.1-2.9-.8-3.8-2.1-1-1.3-1.4-3-1.2-4.5.6-3 3.7-5.2 6.8-4.8.6.1 1 .6.9 1.2-.1.6-.6 1-1.2.9-2-.2-4.1 1.2-4.5 3.1-.2.9.1 2 .8 2.8.6.8 1.4 1.3 2.3 1.3 1.4.1 2.9-.8 3.8-2.3.9-1.5 1.3-3.3 1.5-5 1.1-8.6-.2-17.4-3.7-25.2-2.2.4-4.5-.1-6.2-.6-4.7-1.4-6.1-4.1-5.8-6.2.2-1.2.9-2.2 2.1-2.9 1.4-.8 3.2-1 4.7-.4 2.5 1 4 3.2 5.2 5.3.4.7.8 1.4 1.1 2.1 0 0 .1 0 .1-.1 1.7-1 2.5-3.1 3.2-5.3 2.4-7.6 3.3-15.5 2.8-23.5 0-.6.4-1.1 1-1.1s1.1.4 1.1 1c.5 8.2-.4 16.3-2.9 24.2-.7 2.4-1.8 5-4.1 6.4-.1.1-.2.1-.3.2 3.6 8.2 4.9 17.3 3.8 26.2-.3 2-.7 4.1-1.8 5.9-1.2 2.1-3.3 3.4-5.4 3.4zm-5.7-43c-.6 0-1.3.2-1.8.4-.4.3-.9.7-1 1.4-.3 2 2.5 3.4 4.3 3.9 1.9.6 3.5.8 4.7.6l-.9-1.8c-1-1.8-2.2-3.6-4.1-4.4-.4-.1-.8-.1-1.2-.1zM292.8 76l-.2-.2c-1-1-1.6-2.5-1.5-4.1.1-1.7.9-3.2 2.1-4.1 2.4-1.8 6.2-1.5 8.3.9.4.4.3 1.1-.1 1.5-.4.4-1.1.4-1.5-.1-1.4-1.5-3.9-1.8-5.5-.6-.7.6-1.2 1.5-1.3 2.6-.1 1 .3 1.9.9 2.5 1 1 2.7 1.3 4.3.8 1.7-.5 3.1-1.6 4.4-2.8 6.5-5.7 11.3-13.2 13.9-21.4-1.9-1.1-3.3-3.1-4.3-4.6-2.6-4.2-1.8-7.1-.2-8.5.9-.8 2.2-1.1 3.5-.8 1.6.3 3.1 1.4 3.8 2.9 1.2 2.4.9 5.1.4 7.4l-.6 2.4h.1c2 .3 4-.7 5.9-1.9 6.8-4.2 12.7-9.5 17.6-15.8.4-.4 1-.5 1.5-.2.4.4.5 1 .2 1.5-5 6.5-11.1 12-18.1 16.3-2.1 1.3-4.7 2.6-7.3 2.1-.1 0-.2-.1-.4-.1-2.7 8.5-7.7 16.3-14.5 22.2-1.5 1.3-3.2 2.6-5.2 3.2-2.2.7-4.7.2-6.2-1.1zM317 40c-.5-.4-1-.7-1.6-.8-.5-.1-1.2-.1-1.7.4-1.5 1.3-.3 4.2.6 5.8 1 1.7 2.1 2.9 3.1 3.6.2-.6.3-1.3.5-1.9.4-2 .7-4.2-.2-6-.2-.6-.4-.9-.7-1.1zM0 66.6l5 12.5 18.6-9.4-5.1-8.5zm362.1 50.2 11 7.9 10.6-17.9-8.8-4.4z" style="fill:#1a1a1a"/>
        <path style="fill:#fff" d="m320.3 256.3 7.5 7.5 11.3-10.7-6.6-7.5z"/>
        <path d="M327.8 264.8c-.3 0-.5-.1-.7-.3l-7.5-7.5c-.2-.2-.3-.4-.3-.7s.1-.5.3-.7l12.3-10.7c.4-.3 1-.3 1.3.1l6.6 7.5c.3.4.3.9-.1 1.3l-11.3 10.7c-.1.2-.3.3-.6.3zm-6.1-8.5 6.2 6.2 10-9.4-5.4-6.2-10.8 9.4z" style="fill:#1a1a1a"/>
        <path style="fill:#fff" d="m187.6 81.8 6.9 8.1 12.2-9.7-6-8.1z"/>
        <path d="M194.4 90.9c-.3 0-.5-.1-.6-.3l-6.9-8.1c-.2-.2-.2-.5-.2-.7 0-.3.2-.5.4-.7l13.1-9.6c.4-.3 1-.2 1.3.2l6 8.1c.3.4.2 1-.2 1.3l-12.2 9.7c-.2 0-.4.1-.7.1zM189 82l5.7 6.7 10.7-8.6-4.9-6.6L189 82z" style="fill:#1a1a1a"/>
        <path style="fill:#fff" d="m21.5 151.5 5.9 1.3 2.6-8.7-7.9-2.8z"/>
        <path d="M27.4 153.7h-.2l-5.9-1.3c-.5-.1-.8-.5-.8-1l.6-10.2c0-.3.2-.6.4-.7.3-.2.6-.2.8-.1l7.9 2.8c.5.2.7.7.6 1.2l-2.5 8.7c-.1.4-.4.6-.9.6zm-4.9-2.9 4.3.9 2-7-5.8-2-.5 8.1z" style="fill:#1a1a1a"/>
        <path style="fill:#fff" d="m385.6 152.6 6 1.3 2.5-8.7-7.8-2.8z"/>
        <path d="M391.6 154.8h-.2l-5.9-1.3c-.5-.1-.8-.5-.8-1l.6-10.2c0-.3.2-.6.4-.7.3-.2.6-.2.8-.1l7.9 2.8c.5.2.7.7.6 1.2l-2.5 8.7c-.1.4-.5.6-.9.6zm-5-2.9 4.3.9 2-7-5.8-2-.5 8.1zM87.9 119.2l6.3 5.3-5 11.7-6-3.5zm192.9 12.7 6.3 5.3-5 11.7-6-3.5zm89.8 105.5-12-25.8-5.7 3-8.1-18.4-7.2 4.4 12.9 25.8 5.7-3.6 9.4 17.4zM218.4 34.3l28.2-3.2-1.1-6.4 20.1-1.9-2-8.2-28.5 4.1 1.6 6.6-19.4 3.4zm249.8 2.6 5.1.6-6.6 18.1-9-2.7zM392.2 0l8.4 3.5-.7 9.6-12.9-1.5zM207.5 186.7l7.9-4.8 11.6 16.4-8.2 1.9zm302-39.7-5.9-10.9-2 1.7-7.5-9.2-5.9 7.5 10.7 11.4 1.9-2.1 3.7 5.5zm-322-15.3 12-2.8-1.1-2.5 10.9-4.7-5.6-7.7-13.8 7.2 1.5 2.5-6.3 2.1z" style="fill:#1a1a1a"/>
    </g>
    <defs>
        <clipPath id="c">
            <path d="M0 0h404v203.5H0z"/>
        </clipPath>
    </defs>
    <g clip-path="url(#c)" transform="translate(71.0 907.0) rotate(0.0 481.5 241.5) scale(2.383663366336634 2.3734643734643734) translate(-0.0 -0.0)">
        <ellipse transform="matrix(0.4114 -0.9115 0.9115 0.4114 26.1785 244.0101)" cx="202" cy="101.7" rx="49" ry="219.4" style="fill:#1a1a1a"/>
        <path d="M372.3 203.5c-11.6 0-26.1-1.8-43.3-5.3-41.6-8.6-94-26.7-147.5-50.8C128 123.2 79.8 95.8 45.7 70.3 11.4 44.5-4.5 23.5 1.1 11.1 6.7-1.3 33-3.4 75.1 5.3c41.6 8.6 94 26.7 147.5 50.8 53.5 24.1 101.7 51.5 135.7 77 34.4 25.8 50.2 46.8 44.6 59.2-3.3 7.5-13.8 11.2-30.6 11.2zM31.7 2C15.9 2 5.9 5.3 2.9 11.9c-5.1 11.3 10.9 32 44 56.8 33.9 25.4 82 52.7 135.3 76.8 53.4 24.1 105.6 42.1 147.1 50.7 40.5 8.4 66.6 6.7 71.7-4.6s-10.9-32-44-56.8c-33.9-25.4-82-52.7-135.3-76.8-53.3-24.1-105.5-42.1-147-50.7C57.6 3.8 43.1 2 31.7 2z" style="fill:#1a1a1a"/>
    </g>
    <defs>
        <clipPath id="d">
            <path d="M0 0h507.9v594H0z"/>
        </clipPath>
    </defs>
    <g clip-path="url(#d)" transform="translate(102.0 26.0) rotate(0.0 604.5 708.5) scale(2.3803898405197876 2.3855218855218854) translate(-0.0 -0.0)">
        <path d="M228.3 295.8s-20.4-5.5-13.4-12.6c7.1-7.2 24.4 1.4 24.4 1.4s20.2-13.1 36.7-9.6c0 0 11.6-7.4 13.9-6.5 2.2.9 2.5 12.6 2.5 12.6 18.4 12.4 13.2 37.8 13.2 37.8s14.7 10.2 10.2 19c-4.1 5.6-15.1 0-15.1 0l-72.4-42.1z" style="fill:#fece2f"/>
        <path d="M465.1 224.7s4 56.5-7.4 97.4c-11.3 40.9-29.3 86.3-69.9 127.5s-87.9 58.6-127.7 64.6c0 0-1.4-61.5 13.7-88.9 15.1-27.4 31.6-50.4 31.6-50.4s15-17.5 29.1-23.2c14.2-5.7 41.9-9.8 65.5-30.2 23.8-20.5 25-43.5 25-43.5s11.3-43 11.8-58.5m0 0s13.7-6.6 28.3 5.2m-267.4 88.5s-1.4-22-13.4-49.1c-5.4-12.1-16.5-25.2-14.8-51 1.7-25.8 19.4-54.8 40.1-74.9s-2-21.3-17.1-20.7c0 0-25.1 23.8-42.6 44s-50.2 56.7-65 108.3 0 101.4 3.1 108.3c3.1 6.9 53.2 9.1 78.7-13.5s29.3-42.5 29.3-42.5l1.7-8.9z" style="fill:#fff"/>
        <path d="M181.3 140.2s15.7 10.5-3.9 40.1l16.8-25c0-.1-4.4-12.1-12.9-15.1zM81.4 291.4h-1c-3.3 22.6-1.7 43.7.9 59.5 8.4-2.2 15.4-13.9 16.3-28.5.9-16.5-6.3-30.4-16.2-31zm363.8 97.8c-.2 0-.4 0-.5-.1-.5-.3-.6-.9-.3-1.4 29.7-48.9 31.3-111 31.3-111.6 0-.6.5-1 1-1 .6 0 1 .5 1 1 0 .6-1.6 63.2-31.6 112.6-.3.3-.6.5-.9.5zM69.9 302.3c-.5 0-1-.4-1-1-1.9-48.3 23.8-84 24.1-84.4.3-.4 1-.5 1.4-.2.4.3.5 1 .2 1.4-.3.3-25.6 35.6-23.7 83.1 0 .6-.4 1.1-1 1.1zm373.2-57.1h-.1c-.5-.1-.9-.6-.8-1.1l3.8-26.2c.1-.5.6-.9 1.1-.8.5.1.9.6.8 1.1l-3.8 26.2c-.1.4-.5.8-1 .8zm13.4 2.9c-.6 0-1-.5-1-1.1l1.5-26.9c0-.6.5-1 1.1-.9.6 0 1 .5.9 1.1l-1.5 26.9c0 .5-.5.9-1 .9zm-82.7 186.7c-12.3 14.3-18.4 30.3-16.5 40.8 10.4-7.4 20.7-16 30.5-26a245.4 245.4 0 0 0 29.5-36c-10.3-4.6-28.8 4.1-43.5 21.2z" style="fill:#1a1a1a"/>
        <ellipse cx="391.3" cy="365.2" rx="7.2" ry="9.1" style="fill:#1a1a1a"/>
        <path d="m433.8 246.2-3.6 16.8s4.1-17.8 21.1-16.4c0 .1-1.9-2.9-17.5-.4zM281 294.1c-22.1-12-49.1-12.8-75.6 12.3-26.4 25-44.9 50.5-103.4 68-5.3 1.6-10 3.3-14.2 5.1-18.5 7.8-27.7 17.5-34.3 27.5-6.7 10-10.8 20.6-19.4 30-2.4 2.7-5.2 5.2-8.6 7.7-35.9 26.5-44.4 118.3 59.5 144 42.3 10.5 123.5 3.4 158.2-43.9 1.3-1.8 2.6-3.7 3.8-5.7 5.2-8.5 9.1-16.6 12.3-24.2 9.6-22.7 12.6-40.9 25-53.3 16.5-16.5 32.1-35.9 26-67.1s-10.4-41.1-8-61.9c1.6-14.9-3.9-29.1-21.3-38.5z" style="fill:#1a1a1a"/>
        <path d="M123.5 593.9c-14 0-27.4-1.4-38.8-4.2-62.7-15.5-79-52.9-83.2-73.8-5.5-27.7 4.3-58 23.3-72 3.1-2.3 5.9-4.8 8.4-7.6 5.5-6 9-12.3 12.8-19 2-3.6 4.1-7.3 6.5-11 6-9 14.8-19.4 34.7-27.8 4.4-1.8 9.2-3.6 14.3-5.1 49.5-14.8 69.9-35 91.5-56.5 3.7-3.7 7.6-7.5 11.5-11.3 30-28.4 58.3-22.4 76.7-12.4 16.2 8.8 23.7 22.5 21.8 39.7-1.8 15.8.3 25.4 4.1 42.8 1.2 5.4 2.5 11.5 3.9 18.8 6.3 32.2-10.2 51.9-26.2 68-8.5 8.5-12.5 19.6-17.5 33.7-2.2 6.1-4.4 12.4-7.3 19.3-3.7 8.8-7.7 16.7-12.4 24.3-1.2 1.9-2.5 3.9-3.8 5.7-19.8 27.1-52.7 38.9-76.8 44-13.9 2.9-29 4.4-43.5 4.4zM250.9 287c-13.6 0-28.9 5.1-44.8 20.1-4 3.7-7.8 7.6-11.5 11.2-21.8 21.6-42.3 42.1-92.3 57-5.1 1.5-9.8 3.2-14.1 5-19.5 8.2-28 18.3-33.8 27.1-2.4 3.6-4.4 7.3-6.5 10.9-3.7 6.5-7.4 13.3-13.1 19.4-2.7 2.9-5.5 5.5-8.7 7.8-18.4 13.6-27.9 43-22.6 70 4.1 20.4 20.1 57 81.7 72.2 44.5 11 123.8 2 157.1-43.5 1.3-1.8 2.6-3.7 3.7-5.6 4.6-7.5 8.6-15.4 12.3-24 2.9-6.8 5.1-13.1 7.3-19.2 4.9-13.7 9.1-25.6 17.9-34.4 15.7-15.7 31.8-35 25.7-66.2-1.4-7.3-2.8-13.4-3.9-18.7-3.8-17.6-5.9-27.3-4.1-43.4 1.9-16.6-5.1-29.3-20.7-37.7-8.1-4.4-18.3-8-29.6-8z" style="fill:#1a1a1a"/>
        <path d="m35.4 437.1-1.5-1.3c5.2-5.8 8.6-11.9 12.3-18.4 2-3.6 4.1-7.3 6.5-11 5.3-8 13.7-18.3 31.8-26.6l.8 1.8c-17.6 8-25.5 17.6-31 25.9-2.4 3.6-4.4 7.3-6.5 10.9-3.5 6.2-7.1 12.7-12.4 18.7z" style="fill:#fccc2f"/>
        <path d="M302.7 330.2c-.1 0-.2 0-.4-.1-.5-.2-.8-.8-.6-1.3.6-1.5 14-36.6-16.3-49.7-25.8-11.2-50.5 9.9-50.8 10.1-.4.4-1 .3-1.4-.1-.4-.4-.3-1 .1-1.4.3-.2 26-22.1 52.9-10.4 32 13.9 17.5 51.9 17.3 52.3-.1.4-.4.6-.8.6z" style="fill:#1a1a1a"/>
        <path d="M292.4 282.1c-.1 0-.1 0 0 0-.6 0-1-.5-1-1.1.4-5.2-.3-11.1-1.8-11.6-2-.6-8.8 3.3-13 6.4-.4.3-1.1.2-1.4-.2-.3-.4-.2-1.1.2-1.4 1.8-1.3 11.1-7.8 14.7-6.6 3.8 1.2 3.4 10.7 3.2 13.6 0 .5-.4.9-.9.9zm18.9 60c-4.2 0-9.3-3-10-3.5-.5-.3-.6-.9-.3-1.4.3-.5.9-.6 1.4-.3 2.1 1.3 8.3 4.4 10.9 2.7 1-.6 1.7-2 1.8-3.6.4-4.8-3.4-11.1-10.1-16.8-.4-.4-.5-1-.1-1.4.4-.4 1-.5 1.4-.1 10.4 8.8 11 15.8 10.8 18.5-.2 2.3-1.2 4.2-2.8 5.2-.9.5-1.9.7-3 .7zm-89.5-47.5c-.1 0-.2 0-.3-.1-.8-.3-7.8-2.8-8.8-7.1-.4-1.7.1-3.3 1.5-4.9 5.1-5.6 19-2.8 24.6.9.5.3.6.9.3 1.4-.3.5-.9.6-1.4.3-5.4-3.6-18-5.6-22-1.2-1 1.1-1.3 2.1-1.1 3.1.7 2.7 5.7 5 7.5 5.7.5.2.8.8.6 1.3-.1.3-.5.6-.9.6zm-27.6-138.4c-.4 0-.8-.3-1-.7-6-18.5-20.4-17.3-21-17.3-.5 0-1-.3-1.1-.9-.1-.5.3-1 .9-1.1.2 0 16.6-1.4 23.1 18.6.2.5-.1 1.1-.6 1.3-.1.1-.2.1-.3.1zm66 358.9c-.5 0-.9-.3-1-.8-.1-.5.3-1.1.8-1.2 79.8-13.7 136.9-56.5 174.5-130.7 39.5-78.2 29.8-156.8 29.7-157.6-.1-.5.3-1 .9-1.1.6-.1 1 .3 1.1.9.1.8 10 80.1-29.8 158.8-19.4 38.4-44.7 69-75.2 91-28.4 20.5-62.3 34.2-100.8 40.8-.1-.1-.2-.1-.2-.1z" style="fill:#1a1a1a"/>
        <path d="M305.5 375.8c-.2 0-.4-.1-.6-.2-.4-.3-.5-1-.2-1.4.1-.2 14.1-18.3 34-24.9 1.6-.5 3.5-1.1 5.5-1.8 23.2-7.4 66.3-21 77.9-60.8 12.6-43.3 13.6-67.1 13.7-67.3 0-.6.5-1 1-1 .6 0 1 .5 1 1 0 .2-1.1 24.2-13.7 67.8-11.8 40.8-57.3 55.2-79.2 62.2-2 .6-3.9 1.2-5.5 1.8-19.3 6.4-32.9 24-33 24.2-.3.3-.6.4-.9.4z" style="fill:#1a1a1a"/>
        <path d="M466.4 255.3c-.2 0-.5-.1-.7-.3-16.3-14.9-31.6-7.9-32.3-7.6-.5.2-1.1 0-1.3-.5-.2-.5 0-1.1.5-1.3.2-.1 17.2-7.9 34.5 7.9.4.4.4 1 .1 1.4-.3.3-.6.4-.8.4z" style="fill:#1a1a1a"/>
        <path d="m346.3 129-4.4 55.6 121.4 9 4.9-56.6c3.4 8.6 10.5 14.6 18.8 14.6 11.5 0 20.9-11.5 20.9-25.7S498.5 100 487 100c-6.7 0-12.7 3.9-16.5 9.9l4.1-47.2-50-4.8c8.4 4.6 13.6 13.2 12.5 22.2-1.5 12.4-14.2 21-28.3 19.2-14.1-1.7-24.3-13.2-22.8-25.5 1.1-8.6 7.5-15.4 16.1-18.1l-49.8-4.8-4.7 60.3" style="fill:#fece2f"/>
        <path d="M465.1 224.7s4.4-25.5 5.8-35c1.4-9.4 3.1-25 .2-23.6s-12.4 25.8-12.4 25.8l-24.2-.2 3 27.4s11.9-2.7 18.4 0c5.2 2.1 9.2 5.6 9.2 5.6z" style="fill:#fece2f"/>
        <path d="M465.1 225.7c-.2 0-.5-.1-.7-.3-10.8-10.3-27.2-5-27.3-5-.5.2-1.1-.1-1.3-.6-.2-.5.1-1.1.6-1.3.7-.2 17.7-5.7 29.3 5.4.4.4.4 1 0 1.4 0 .3-.3.4-.6.4z" style="fill:#1a1a1a"/>
        <path d="M465.1 225.7h-.2c-.5-.1-.9-.6-.8-1.2 4.6-25.8 8.7-54.6 7.4-58.1-2.1 1.4-7.8 14.6-12 26.5-.2.5-.8.8-1.3.6-.5-.2-.8-.8-.6-1.3 2.9-8.2 10-27.3 13.8-27.9.6-.1 1.2.2 1.6.7 2.9 3.9-5.2 50.5-6.9 59.8-.1.5-.5.9-1 .9zm-28.3-5.2c-.5 0-1-.4-1-.9l-2.3-27.8c0-.5.4-1 .9-1.1.5-.1 1 .4 1.1.9l2.3 27.8c.1.5-.4 1-1 1.1.1 0 0 0 0 0zm-51.5 111.3s-.3 9.4 4.1 9.8c4.4.3 10.4-1.9 11.3 2.5.9 4.4 2.2 27.1 12.6 24.2 7.9-2.2 1.6-20.8-.6-37.5s.3-23.6.3-23.6-6.6 14.9-27.7 24.6z" style="fill:#1a1a1a"/>
        <ellipse transform="matrix(0.763 -0.6464 0.6464 0.763 -78.9338 141.4799)" cx="153.5" cy="178.4" rx="8" ry="7.1" style="fill:#1a1a1a"/>
        <path d="M169.7 223.5s-36.4 17.5-40.2 26c-3.1 6.9 2.3 14.8 12.2 12 9.9-2.8 19.3-10.4 24.1-6.1 3 2.7 6 6.4 16.4 3.5 0 0-6.3-10.9-9-19.7s-3.5-15.7-3.5-15.7zM366.6 96.2c-8.4 0-15.7 6.1-19 15l4.7-60.3-55-5.7c9-2.6 15.9-9.5 17-18.4 1.5-12.4-8.7-23.8-22.8-25.5-14.1-1.7-26.8 6.9-28.3 19.2-1.1 9.2 4.3 18 13 22.5l-50.9-5.3-8.5 136 125.1 10.9 4.4-56.4c2.2 11.2 10.5 19.6 20.3 19.6 11.5 0 20.9-11.5 20.9-25.7 0-14.4-9.4-25.9-20.9-25.9z" style="fill:#1a1a1a"/>
        <path d="M341.9 185.5s-.1 0 0 0l-125.2-10.9c-.5 0-.9-.5-.9-1.1l8.5-136c0-.3.1-.5.4-.7.2-.2.5-.3.8-.2l46.7 4.9c-7-5.2-10.8-13.1-9.8-21.2.8-6.3 4.3-11.8 9.9-15.6C277.8.9 284.8-.7 291.9.2c7.1.9 13.4 4.1 17.9 9.1 4.5 5 6.6 11.3 5.8 17.5-.9 7.6-6.1 14.3-13.6 17.7l50.7 5.3c.5.1.9.5.9 1.1l-4.3 55c4.1-6.7 10.6-10.8 17.6-10.8 12.1 0 21.9 12 21.9 26.7s-9.8 26.7-21.9 26.7c-8.6 0-16.1-6-19.7-15.1l-4 51c0 .3-.1.5-.4.7-.4.3-.7.4-.9.4zm-124.1-12.8L341 183.4l4.3-55.4c0-.5.4-.9.9-.9s.9.3 1 .8c2.2 11.1 10.2 18.8 19.3 18.8 11 0 19.9-11.1 19.9-24.7s-8.9-24.7-19.9-24.7c-7.7 0-14.8 5.6-18.1 14.3-.2.5-.7.7-1.2.6-.5-.1-.8-.6-.8-1.1l4.6-59.3-54-5.6c-.5 0-.9-.4-.9-.9s.3-.9.7-1c8.9-2.5 15.3-9.4 16.3-17.6.7-5.7-1.2-11.4-5.3-16C303.9 6 298 3 291.4 2.2c-6.6-.8-13 .7-18.2 4.2-5.1 3.5-8.3 8.5-9 14.2-1.1 8.6 3.8 17 12.5 21.5.4.2.6.7.5 1.2-.1.5-.6.8-1.1.7l-49.9-5.2-8.4 133.9z" style="fill:#1a1a1a"/>
        <path d="M337.2 64.3c-14.2 4-29.7 5.5-46 4.5-31.2-2-56.3-12.4-66.8-17.6L223.2 70c13.9 6 38 14.5 66.9 16.3 3.7.2 7.3.3 10.9.3 14.3 0 28.1-1.8 41-5.5 18.1-5.1 34.6-13.7 49.2-25.7L364.1 53c-8.4 4.8-17.4 8.6-26.9 11.3zm83.4 99.7c0-25.4-40.3-46-90-46s-90 20.6-90 46c0 4.1 1.1 8.2 3.1 12l98.3 8.5 63.9 4.7c9.3-7.2 14.7-15.9 14.7-25.2z" style="fill:#fff"/>
        <path d="M408.4 142.5c-.2 0-.5-.1-.6-.2-.4-.4-.5-1-.1-1.4 16.7-20.1 37.4-36 61.5-47.1.5-.2 1.1 0 1.3.5.2.5 0 1.1-.5 1.3-23.8 11-44.3 26.6-60.8 46.5-.2.3-.5.4-.8.4z" style="fill:#fff"/>
        <path d="M341.9 185.5s-.1 0 0 0c-.6 0-1-.5-1-1.1l4.4-56.4c0-.5.4-.9.9-.9s.9.3 1 .8c2.2 11.1 10.2 18.8 19.3 18.8 11 0 19.9-11.1 19.9-24.7 0-.6.4-1 1-1s1 .4 1 1c0 14.7-9.8 26.7-21.9 26.7-8.6 0-16.1-6-19.7-15.1l-4 51c0 .5-.4.9-.9.9z" style="fill:#1a1a1a"/>
        <path d="M209.7 138.2s13.7-10.2 19.2-17.9 12.6-23 13.5-25c.9-2 3.1-8.2.9-9.3-2.2-1.1-11.5 9.8-11.5 9.8s-7.4 9.4-9.8 6c-2.4-3.5-1.7-10.2-1.7-10.2l1.9-5.5.7-12.6s-7.8 3-9.5 6.3c-1.7 3.3-8 16.7-8 16.7l-3.9 9.4-9.4 11.6s8.5-.6 12.1 5.4c3.6 5.8 5.5 15.3 5.5 15.3z" style="fill:#fece2f"/>
        <path d="M209.7 139.2c-.3 0-.6-.1-.8-.4-.3-.4-.2-1.1.2-1.4.1-.1 15-11.3 20.5-19.9 6.1-9.5 14.7-26.5 13.5-30.3-.1-.3-.2-.3-.2-.3-1.1-.3-5.2 4.3-7.7 7.1-4.8 5.3-9.3 10.3-12.5 9.4-1.4-.4-2.3-1.7-2.7-4-2.1-11.7 1.4-14 1.8-14.3.5-.3 1.1-.1 1.4.4.3.5.1 1.1-.4 1.4 0 0-2.6 2-.8 12.2.1.8.5 2.2 1.2 2.4 2 .6 6.9-4.9 10.5-8.8 4.9-5.5 7.9-8.6 10-7.6.4.2 1 .6 1.3 1.6 1.6 5.5-9.5 25.4-13.8 32-5.7 8.9-20.4 19.9-21 20.4-.1 0-.3.1-.5.1zM192 118.4c-.2 0-.4-.1-.6-.2-.4-.3-.5-1-.1-1.4l9.4-11.5 9.4-22c1.7-4 4.8-7.3 8.7-9.4l3.4-1.8c.5-.3 1.1-.1 1.3.4.3.5.1 1.1-.4 1.3l-3.4 1.8c-3.5 1.8-6.2 4.8-7.8 8.4l-9.4 22.1c0 .1-.1.2-.1.2l-9.4 11.6c-.4.4-.7.5-1 .5z" style="fill:#1a1a1a"/>
        <path d="M88.1 379.1c-.4 0-.7-.2-.9-.6-.2-.4-18.9-40.2-3.2-109 15.6-68.8 106.4-152.1 107.3-152.9.2-.1.3-.2.6-.3.2 0 5.6-.6 10.7 3.4 4.5 3.6 7.3 9.8 8.1 18.3 0 .3-.1.6-.3.8-.4.4-43.7 39.1-39.6 84.5 1.1 12.1 5.5 21.1 10.6 31.6 6.8 14 14.6 29.8 17.4 58.1.1.5-.3 1-.9 1.1-.5.1-1-.3-1.1-.9-2.8-28-10.5-43.6-17.2-57.4-5.2-10.6-9.7-19.8-10.8-32.3-3.9-44.1 35.6-81.8 39.9-85.8-.8-7.7-3.3-13.2-7.3-16.4-3.8-3-7.8-3.1-8.9-3-5.3 4.9-91.4 85.2-106.5 151.6-15.5 68.1 2.9 107.3 3.1 107.6.2.5 0 1.1-.5 1.3-.2.3-.3.3-.5.3z" style="fill:#1a1a1a"/>
        <path d="m245.4 543.4-1.6-1.1 2.4-3.6c4.3-7 8.1-14.3 11.5-22.3l1.8.8c-3.5 8.1-7.3 15.4-11.6 22.5-.8 1.2-1.7 2.5-2.5 3.7z" style="fill:#fccc2f"/>
        <path d="M458.5 193.6s0-.1 0 0l-116.7-8-125.2-10.9c-.5 0-1-.5-.9-1.1 0-.5.5-1 1.1-.9L342 183.5l116.6 8c.6 0 1 .5.9 1.1 0 .5-.4 1-1 1zM350 80.7c-.6 0-1-.5-1-1.1l1.6-22.6c0-.6.5-1 1.1-.9.6 0 1 .5.9 1.1L351 79.8c0 .5-.4.9-1 .9z" style="fill:#1a1a1a"/>
        <circle cx="280" cy="105.9" r="11.2" style="fill:#fece2f"/>
        <path d="M222.3 87.6c-.1 0-.1 0 0 0-.6 0-1-.5-1-1.1l3-48.9c0-.6.5-1 1.1-.9.6 0 1 .5.9 1.1l-3 48.9c-.1.5-.5.9-1 .9z" style="fill:#1a1a1a"/>
        <path d="m41.6 542.4-.2-2c17.2-1.5 29.7-7.6 38.1-18.6 9.8-12.7 14.3-32 13.8-58.8-2.5-47.6 14.7-65 45.3-78.9 5.5-2.5 11.3-4.5 17.4-6.7 21-7.3 42.8-14.9 54.5-42.3 16.1-37.8 45-40.3 45.2-40.3l.1 2c-.3 0-27.9 2.4-43.5 39.1-12 28.2-35.2 36.3-55.7 43.4-6.1 2.1-11.9 4.1-17.3 6.6-29.8 13.6-46.6 30.5-44.1 77 1.1 51-16 76.2-53.6 79.5zm82.5 21.7-.7-1.9c60.6-23.4 57.8-54.4 54.6-90.3-.3-2.8-.5-5.6-.7-8.5-.7-29.5 22.9-60.1 39.5-69.9 3.4-2 6.9-3.8 10.3-5.5 13.8-6.9 26.9-13.5 28.9-34.7 2.5-27.2 24.8-42.8 25-42.9l1.1 1.6c-.2.1-21.7 15.2-24.1 41.5-2.1 22.3-15.6 29.1-30 36.3-3.4 1.7-6.9 3.4-10.2 5.4-16.5 9.8-39.2 40.4-38.5 68.1.2 2.8.5 5.6.7 8.4 1.6 18 3.2 35.1-3.5 50.7-7.5 17.5-24.1 30.8-52.4 41.7z" style="fill:#fccc2f"/>
        <path d="m196.7 377.2-.6-1.9c.2-.1 22.2-6.7 28.3-31.4 5.4-21.8 18.8-29.9 19.4-30.2l1 1.7c-.1.1-13.3 8-18.4 29-6.4 25.7-29.4 32.7-29.7 32.8z" style="fill:#fccc2f"/>
        <path style="fill:#1a1a1a" d="m458.5 192.6-23.4 4.4-.6-5.3z"/>
        <path d="M435.1 198c-.2 0-.4-.1-.6-.2-.2-.2-.4-.4-.4-.7l-.6-5.2c0-.3.1-.6.3-.8.2-.2.5-.3.8-.3l24.1.8c.5 0 .9.4 1 .9 0 .5-.3 1-.8 1.1l-23.4 4.4h-.4zm.5-5.2.4 3 13.5-2.5-13.9-.5zM182.1 140c-.2 0-.5-.1-.7-.2-.4-.4-.5-1-.1-1.4l17.1-19.9c.4-.4 1-.5 1.4-.1.4.4.5 1 .1 1.4l-17.1 19.9c-.1.2-.4.3-.7.3zm7.9 7.4c-.2 0-.5-.1-.7-.3-.4-.4-.5-1-.1-1.4l16.7-18.8c.4-.4 1-.5 1.4-.1s.5 1 .1 1.4L190.8 147c-.2.3-.5.4-.8.4z" style="fill:#1a1a1a"/>
        <path d="M343.7 427c-.5 0-1.2-.2-1.8-.8-6.1-6.5 1.3-63.1 2.2-69.6l2 .3c-3.4 24.9-6.9 63.5-2.7 67.9.2.2.3.2.4.2 2.9-.2 4.7-8.7 6.3-16.8 2.4-11.8 5.1-25.1 12.9-28.4l.8 1.8c-6.8 2.9-9.5 16.3-11.7 27-2.1 10.1-3.7 18.1-8.1 18.4h-.3zM120 327.8l-2-.2c2-18.3 17.8-22.6 29.4-25.7 7.7-2 12.3-3.5 12.1-6.9-.1-1.3-.6-2.3-1.7-3.2-7.1-5.9-31.5-2.8-31.8-2.8l-.3-2c1-.1 25.5-3.2 33.3 3.2 1.5 1.3 2.4 2.8 2.5 4.6.3 5.2-5.9 6.9-13.6 9-11.6 3.2-26.1 7-27.9 24z" style="fill:#fccc2f"/>
        <circle cx="441.4" cy="145.1" r="6.9" style="fill:#fff"/>
        <path d="M381.6 188.2h-.3c-.5-.2-.8-.7-.7-1.3 0-.1 3.8-11.9 13.5-27.4 4-6.5 8.6-12.7 13.5-18.6.4-.4 1-.5 1.4-.1.4.4.5 1 .1 1.4-4.8 5.8-9.3 12-13.3 18.4-9.6 15.4-13.3 26.9-13.3 27-.1.3-.5.6-.9.6z" style="fill:#1a1a1a"/>
    </g>
</svg>