<svg xmlns="http://www.w3.org/2000/svg" viewBox="0 0 32 32" id="score">
  <path d="m25.308,7h-4.308V2.692c.209.141.407.3.586.48l3.242,3.242c.18.179.338.377.48.586Zm-13.308,15c0-5.514,4.486-10,10-10,1.422,0,2.774.303,4,.841v-3.599c0-.082-.019-.161-.024-.242h-5.976c-.553,0-1-.447-1-1V2.024c-.081-.005-.161-.024-.242-.024h-9.758c-1.654,0-3,1.346-3,3v20c0,1.654,1.346,3,3,3h5.019c-1.262-1.674-2.019-3.748-2.019-6Zm9.672,0h.829l-.414-1.036-.414,1.036Zm8.328,0c0,4.411-3.589,8-8,8s-8-3.589-8-8,3.589-8,8-8,8,3.589,8,8Zm-4.442,2.257l-2.543-6.356c-.152-.38-.52-.629-.929-.629s-.776.249-.929.629l-2.543,6.357c-.205.513.045,1.095.558,1.3.121.049.247.071.371.071.396,0,.772-.237.929-.629l.4-1h2.429l.4.999c.205.514.792.763,1.3.558.513-.205.763-.787.558-1.3Z"></path>
</svg>
