<?xml version="1.0" encoding="utf-8"?>
<!-- Generator: Adobe Illustrator 27.5.0, SVG Export Plug-In . SVG Version: 6.00 Build 0)  -->
<svg version="1.1" xmlns="http://www.w3.org/2000/svg" xmlns:xlink="http://www.w3.org/1999/xlink" x="0px" y="0px"
	 viewBox="0 0 500 500" style="enable-background:new 0 0 500 500;" xml:space="preserve">
<g id="Plant">
	<g>
		<path style="fill:#FF367C;" d="M442.22,373.895c-4.183,2.464-8.532,7.892-11.273,12.742c-0.976,1.727-2.013,4.795-2.49,6.603
			c-1.192,4.521-1.236,9.894-0.717,10.19c1.103,0.628,6.087-5.253,7.288-6.978c3.339-4.796,6.036-9.043,7.146-14.56
			C442.387,380.833,443.581,373.093,442.22,373.895z"/>
		<path style="fill:#FF367C;" d="M447.989,403.482c-4.168,0.616-9.642,3.5-13.661,6.438c-1.431,1.046-3.443,3.121-4.526,4.388
			c-2.708,3.166-4.881,7.359-4.603,7.754c0.591,0.838,6.729-2.202,8.331-3.175c4.453-2.707,8.198-5.185,11.24-9.156
			C445.356,408.968,449.346,403.281,447.989,403.482z"/>
		<path style="fill:#FF367C;" d="M415.914,391.651c-1.26,3.06-1.048,8.041-0.154,12.077c0.317,1.437,1.31,3.738,1.978,5.045
			c1.67,3.269,4.497,6.658,4.973,6.656c1.011-0.005,0.948-5.5,0.77-7.017c-0.497-4.219-1.097-7.861-3.346-11.725
			C419.702,395.944,416.324,390.655,415.914,391.651z"/>
		
			<path style="fill:none;stroke:#FF367C;stroke-width:2;stroke-linecap:round;stroke-linejoin:round;stroke-miterlimit:11.9056;" d="
			M428.745,401.561c0,0-2.708,6.688-4.373,14.792c-1.96,9.539-2.768,19.917-2.768,19.917"/>
	</g>
</g>
<g id="Floor">
	<g>
		
			<path style="fill:none;stroke:#263238;stroke-width:2;stroke-linecap:round;stroke-linejoin:round;stroke-miterlimit:11.9056;" d="
			M24.386,436.271h451.228"/>
	</g>
</g>
<g id="Sparkles">
	<g>
		<g>
			
				<path style="fill:none;stroke:#263238;stroke-width:2;stroke-linecap:round;stroke-linejoin:round;stroke-miterlimit:11.9056;" d="
				M448.269,253.596v3.82"/>
			
				<path style="fill:none;stroke:#263238;stroke-width:2;stroke-linecap:round;stroke-linejoin:round;stroke-miterlimit:11.9056;" d="
				M448.269,261.723v3.82"/>
			
				<path style="fill:none;stroke:#263238;stroke-width:2;stroke-linecap:round;stroke-linejoin:round;stroke-miterlimit:11.9056;" d="
				M454.242,259.57h-3.82"/>
			
				<path style="fill:none;stroke:#263238;stroke-width:2;stroke-linecap:round;stroke-linejoin:round;stroke-miterlimit:11.9056;" d="
				M446.115,259.57h-3.819"/>
		</g>
		<g>
			
				<path style="fill:none;stroke:#263238;stroke-width:2;stroke-linecap:round;stroke-linejoin:round;stroke-miterlimit:11.9056;" d="
				M47.3,177.018v3.82"/>
			
				<path style="fill:none;stroke:#263238;stroke-width:2;stroke-linecap:round;stroke-linejoin:round;stroke-miterlimit:11.9056;" d="
				M47.3,185.144v3.82"/>
			
				<path style="fill:none;stroke:#263238;stroke-width:2;stroke-linecap:round;stroke-linejoin:round;stroke-miterlimit:11.9056;" d="
				M53.274,182.991h-3.82"/>
			
				<path style="fill:none;stroke:#263238;stroke-width:2;stroke-linecap:round;stroke-linejoin:round;stroke-miterlimit:11.9056;" d="
				M45.147,182.991h-3.82"/>
		</g>
		<g>
			
				<path style="fill:none;stroke:#263238;stroke-width:2;stroke-linecap:round;stroke-linejoin:round;stroke-miterlimit:11.9056;" d="
				M235.465,235.926v3.819"/>
			
				<path style="fill:none;stroke:#263238;stroke-width:2;stroke-linecap:round;stroke-linejoin:round;stroke-miterlimit:11.9056;" d="
				M235.465,244.053v3.82"/>
			
				<path style="fill:none;stroke:#263238;stroke-width:2;stroke-linecap:round;stroke-linejoin:round;stroke-miterlimit:11.9056;" d="
				M241.438,241.9h-3.82"/>
			
				<path style="fill:none;stroke:#263238;stroke-width:2;stroke-linecap:round;stroke-linejoin:round;stroke-miterlimit:11.9056;" d="
				M233.311,241.9h-3.82"/>
		</g>
		<g>
			
				<path style="fill:none;stroke:#263238;stroke-width:2;stroke-linecap:round;stroke-linejoin:round;stroke-miterlimit:11.9056;" d="
				M214.293,39.274v3.82"/>
			
				<path style="fill:none;stroke:#263238;stroke-width:2;stroke-linecap:round;stroke-linejoin:round;stroke-miterlimit:11.9056;" d="
				M214.293,47.401v3.82"/>
			
				<path style="fill:none;stroke:#263238;stroke-width:2;stroke-linecap:round;stroke-linejoin:round;stroke-miterlimit:11.9056;" d="
				M220.267,45.248h-3.82"/>
			
				<path style="fill:none;stroke:#263238;stroke-width:2;stroke-linecap:round;stroke-linejoin:round;stroke-miterlimit:11.9056;" d="
				M212.14,45.248h-3.82"/>
		</g>
	</g>
</g>
<g id="Speech_bubble">
	<g>
		
			<path style="fill:none;stroke:#263238;stroke-width:2;stroke-linecap:round;stroke-linejoin:round;stroke-miterlimit:11.9056;" d="
			M290.775,71.463c0,0,2.786,4.249,7.514,5.925c4.628,1.641,12.157,0.708,12.157,0.708s-2.131-0.051-7.171-3.293
			c-3.173-2.041-4.897-6.797-4.897-6.797l-0.028,0.011c5.301-3.83,8.75-10.063,8.75-17.102c0-11.645-9.441-21.085-21.086-21.085
			c-11.645,0-21.085,9.44-21.085,21.085c0,11.645,9.44,21.085,21.085,21.085c1.615,0,3.187-0.181,4.696-0.525L290.775,71.463z"/>
		<path style="fill:#FF367C;" d="M284.302,51.252c0.357-0.357,0.785-0.535,1.32-0.535c1.355,0,2.424-0.321,3.244-0.963
			c0.82-0.642,1.248-1.604,1.248-2.959c0-1.034-0.357-1.89-1.106-2.567c-0.748-0.677-1.676-0.998-2.781-0.998
			c-1.141,0-2.139,0.392-2.995,1.141c-0.499,0.464-0.998,0.677-1.533,0.677c-0.392,0-0.749-0.107-1.034-0.356
			c-0.535-0.392-0.784-0.891-0.784-1.462c0-0.464,0.178-0.891,0.57-1.284c0.749-0.749,1.605-1.355,2.603-1.783
			c0.998-0.428,2.068-0.642,3.173-0.642c1.391,0,2.674,0.321,3.815,0.963c1.141,0.642,2.068,1.497,2.746,2.638
			c0.677,1.105,0.998,2.353,0.998,3.672c0,1.961-0.571,3.53-1.676,4.671c-1.141,1.141-2.638,1.854-4.492,2.139
			c-0.107,0.036-0.142,0.107-0.142,0.143v1.141c0,0.535-0.178,0.963-0.535,1.355c-0.357,0.357-0.785,0.535-1.319,0.535
			c-0.535,0-0.963-0.178-1.32-0.535c-0.356-0.357-0.534-0.82-0.534-1.355v-2.353C283.768,52.072,283.946,51.645,284.302,51.252z
			 M284.089,61.842c-0.321-0.321-0.463-0.784-0.463-1.355v-0.535c0-0.606,0.143-1.034,0.463-1.355
			c0.321-0.321,0.784-0.464,1.355-0.464h0.392c0.606,0,1.034,0.143,1.355,0.464c0.321,0.321,0.463,0.784,0.463,1.355v0.535
			c0,0.606-0.143,1.034-0.463,1.355c-0.321,0.321-0.784,0.464-1.355,0.464h-0.392C284.873,62.341,284.409,62.163,284.089,61.842z"/>
	</g>
</g>
<g id="Character_2">
	<path style="fill:#FFC051;" d="M174.064,240.667c7.149-1.922,10.283-17.726,6.809-27.599c-3.474-9.874-8.851-2.121-8.851-2.121
		L174.064,240.667z"/>
	<g>
		<g>
			<g>
				<path style="fill:#FFFFFF;" d="M93.86,401.919l-2.213-4.783l36.816-17.036l11.343,24.513l-62.724,29.025
					C72.517,423.772,93.86,401.919,93.86,401.919z"/>
				
					<path style="fill:none;stroke:#263238;stroke-width:2;stroke-linecap:round;stroke-linejoin:round;stroke-miterlimit:11.9056;" d="
					M130.997,385.577l8.808,19.035l-62.724,29.025c-4.565-9.865,16.778-31.718,16.778-31.718"/>
				
					<line style="fill:none;stroke:#FF367C;stroke-width:2;stroke-linecap:round;stroke-linejoin:round;stroke-miterlimit:11.9056;" x1="91.074" y1="412.018" x2="79.406" y2="411.251"/>
				
					<line style="fill:none;stroke:#FF367C;stroke-width:2;stroke-linecap:round;stroke-linejoin:round;stroke-miterlimit:11.9056;" x1="88.219" y1="415.644" x2="76.551" y2="414.876"/>
			</g>
		</g>
		<g>
			<g>
				<path style="fill:#FFFFFF;" d="M129.274,414.699v-5.27h40.567v27.01h-69.114C100.727,425.569,129.274,414.699,129.274,414.699z"
					/>
				
					<path style="fill:none;stroke:#263238;stroke-width:2;stroke-linecap:round;stroke-linejoin:round;stroke-miterlimit:11.9056;" d="
					M169.841,415.464v20.975h-69.114c0-10.87,28.547-21.739,28.547-21.739"/>
				
					<line style="fill:none;stroke:#FF367C;stroke-width:2;stroke-linecap:round;stroke-linejoin:round;stroke-miterlimit:11.9056;" x1="122.504" y1="422.695" x2="112.237" y2="417.099"/>
				
					<line style="fill:none;stroke:#FF367C;stroke-width:2;stroke-linecap:round;stroke-linejoin:round;stroke-miterlimit:11.9056;" x1="118.39" y1="424.786" x2="108.123" y2="419.19"/>
			</g>
			
				<path style="fill:none;stroke:#263238;stroke-width:2;stroke-linecap:round;stroke-linejoin:round;stroke-miterlimit:11.9056;" d="
				M153.279,422.695c0-2.358,1.912-4.27,4.271-4.27c2.358,0,4.271,1.911,4.271,4.27c0,2.359-1.912,4.271-4.271,4.271
				C155.192,426.965,153.279,425.054,153.279,422.695z"/>
		</g>
		<path style="fill:#FFC051;" d="M101.799,192.174l75.839-1.178l-4.357,221.147l-47.313,0.338l0.142-25.283l-34.515,15.033
			c0,0-32.802-88.441-32.863-113.653C58.68,267.03,101.799,192.174,101.799,192.174z M126.728,253.964l-16.459,36.77l15.997,63.192
			L126.728,253.964z"/>
		
			<path style="fill:none;stroke:#FF367C;stroke-width:2;stroke-linecap:round;stroke-linejoin:round;stroke-miterlimit:11.9056;" d="
			M161.821,405.054l5.436-194.575"/>
		
			<path style="fill:none;stroke:#FF367C;stroke-width:2;stroke-linecap:round;stroke-linejoin:round;stroke-miterlimit:11.9056;" d="
			M126.11,412.466l2.276-201.987"/>
		
			<path style="fill:none;stroke:#FF367C;stroke-width:2;stroke-linecap:round;stroke-linejoin:round;stroke-miterlimit:11.9056;" d="
			M120.96,210.479c0,0-0.836,14.679,0.97,18.892c1.806,4.214,5.747,4.815,5.747,4.815"/>
		<g id="Layer-4_00000096055688141438945160000009034273383330373550_">
			<path style="fill:#263238;" d="M203.65,100.83l-8.71,18.34l-12.05,8.64l-6.59,4.73l-0.42,6.35l-2.14,32.82l-2.34,35.74H88.23
				l8.49-38.65l6.1-27.79l-3.05-0.28l-11.81-1.1l-18.43-1.73c0,0,4.81-17.82,21.83-32.14c6.55-5.51,13.29-8.09,22.24-10.47
				c4.22-1.12,8.37-0.92,9.5-0.83c0.19,0.01,0.3,0.02,0.3,0.02s0.6,11.61,9.91,11.62c7.57,0.02,12.68-8.83,14.33-12.15
				c0.38-0.76,0.58-1.23,0.58-1.23s7.8,0.36,11.67,0.7C186.12,95.73,203.65,100.83,203.65,100.83z"/>
			<path style="fill:#263238;" d="M184.72,141.01c0,11.66-4.12,22.35-10.98,30.7c-8.88,10.8-22.34,17.69-37.41,17.69
				c-16.39,0-30.87-8.14-39.61-20.6c-5.53-7.86-8.78-17.44-8.78-27.79c0-0.46,0.01-0.92,0.02-1.38
				c0.6-21.54,15.27-39.55,35.14-45.17c0.19,0.01,0.3,0.02,0.3,0.02s0.6,11.61,9.91,11.62c7.57,0.02,12.68-8.83,14.33-12.15
				c17.01,4.07,30.52,17.12,35.25,33.86C184.08,132,184.72,136.43,184.72,141.01z"/>
			<polygon style="fill:#263238;" points="184.67,138.68 184.67,215.936 87.94,215.936 87.94,141.01 99.77,140.73 175.88,138.89 			
				"/>
		</g>
		<g id="Layer-11_00000075147083992899175490000001664021604366293917_">
			<path style="fill:#263238;" d="M140.76,41.347c-0.828-0.235-2.126-0.435-2.786-0.232c-2.484,0.764-2.851,3.149-2.039,5.442
				c-6.101-1.685-13.815-1.188-15.316,1.844c-1.747,3.528,2.444,6.807,2.444,6.807s-5.678,0.023-6.837,3.875
				c-1.16,3.852,4.658,6.263,4.658,6.263l4.475-6.362c0,0,3.794,1.129,7.818,0.344c4.023-0.785,8.052-2.518,8.052-2.518
				s-1.291,5.651,2.257,11.116c3.548,5.465,6.864,8.102,6.864,8.102l-2.813,5.38c0,0,7.046-2.014,11.079-9.675
				c4.033-7.661,0.178-13.434-3.967-16.205c-1.76-1.177-3.636-1.687-5.281-1.955c-0.062-1.428-0.298-4.01-1.828-6.742
				C146.112,44.282,143.242,42.053,140.76,41.347z"/>
			
				<path style="fill:none;stroke:#263238;stroke-width:2;stroke-linecap:round;stroke-linejoin:round;stroke-miterlimit:11.9056;" d="
				M149.051,54.869l2.93-7.088"/>
			
				<path style="fill:none;stroke:#263238;stroke-width:2;stroke-linecap:round;stroke-linejoin:round;stroke-miterlimit:11.9056;" d="
				M149.051,54.869l7.335-6.404"/>
		</g>
		<path style="fill:#FF367C;" d="M201.77,289.094c4.745-4.746,10.441-7.118,17.559-7.118c18.034,0,32.27-4.271,43.186-12.814
			c10.915-8.542,16.61-21.355,16.61-39.389c0-13.763-4.746-25.152-14.712-34.169c-9.966-9.017-22.304-13.288-37.016-13.288
			c-15.186,0-28.475,5.22-39.864,15.186c-6.645,6.169-13.288,9.017-20.407,9.017c-5.22,0-9.966-1.424-13.763-4.746
			c-7.118-5.22-10.44-11.864-10.44-19.457c0-6.169,2.372-11.864,7.593-17.084c9.966-9.966,21.356-18.034,34.644-23.729
			c13.288-5.695,27.526-8.542,42.237-8.542c18.507,0,35.593,4.271,50.779,12.814c15.186,8.543,27.525,19.932,36.542,35.118
			c9.017,14.712,13.288,31.321,13.288,48.881c0,26.101-7.594,46.982-22.305,62.168c-15.186,15.186-35.118,24.678-59.796,28.474
			c-1.423,0.475-1.898,1.423-1.898,1.898V337.5c0,7.118-2.373,12.814-7.119,18.034c-4.745,4.745-10.44,7.118-17.559,7.118
			s-12.814-2.373-17.559-7.118c-4.746-4.746-7.119-10.916-7.119-18.034v-31.321C194.651,300.009,197.024,294.314,201.77,289.094z
			 M198.922,430.041c-4.271-4.271-6.169-10.44-6.169-18.033v-7.119c0-8.067,1.898-13.762,6.169-18.033
			c4.271-4.271,10.44-6.169,18.034-6.169h5.22c8.067,0,13.762,1.898,18.033,6.169c4.271,4.271,6.169,10.441,6.169,18.033v7.119
			c0,8.067-1.898,13.762-6.169,18.033c-4.271,4.271-10.441,6.17-18.033,6.17h-5.22C209.363,436.685,203.194,434.312,198.922,430.041
			z"/>
		
			<path style="fill:none;stroke:#263238;stroke-width:2;stroke-linecap:round;stroke-linejoin:round;stroke-miterlimit:11.9056;" d="
			M121.01,73.813c-2.156-8.461,2.955-17.068,11.417-19.224c8.462-2.156,17.068,2.956,19.224,11.417
			c2.156,8.461-2.956,17.068-11.417,19.224C131.772,87.385,123.166,82.274,121.01,73.813z"/>
		<path style="fill:#FF367C;" d="M139.093,71.281c-0.041-0.983,0.716-1.813,1.689-1.853c0.973-0.04,1.795,0.725,1.835,1.708
			c0.041,0.983-0.716,1.813-1.689,1.853C139.955,73.03,139.133,72.265,139.093,71.281z"/>
		<path style="fill:#263238;" d="M134.773,68.269c-0.218-0.932,0.361-1.865,1.294-2.083c0.932-0.218,1.865,0.362,2.083,1.295
			c0.218,0.933-0.362,1.865-1.295,2.083C135.923,69.781,134.991,69.202,134.773,68.269z"/>
		<path style="fill:#263238;" d="M125.188,68.335c-0.218-0.933,0.362-1.865,1.295-2.083c0.933-0.218,1.865,0.362,2.083,1.294
			c0.218,0.933-0.362,1.865-1.295,2.083C126.338,69.847,125.406,69.267,125.188,68.335z"/>
		
			<path style="fill:none;stroke:#263238;stroke-width:2;stroke-linecap:round;stroke-linejoin:round;stroke-miterlimit:11.9056;" d="
			M131.866,66.901l-2.109,6.03l3.552-0.133"/>
		
			<path style="fill:none;stroke:#263238;stroke-width:2;stroke-linecap:round;stroke-linejoin:round;stroke-miterlimit:11.9056;" d="
			M133.81,76.84c0,0,1.037-0.765,2.712-1.46c1.674-0.695,3.734,0.327,3.734,0.327"/>
		<g id="Layer-7_00000183950729810772798720000004644094425711459723_">
			
				<path style="fill:none;stroke:#FF367C;stroke-width:2;stroke-linecap:round;stroke-linejoin:round;stroke-miterlimit:11.9056;" d="
				M121.062,105.46c0,0,6.017,6.423,15.268,4.923c9.25-1.5,15.651-15.09,15.651-15.09"/>
		</g>
		<g id="Layer-6_00000142870703912567373430000004830478244511283108_">
			<path style="fill:#FFFFFF;" d="M195.235,118.944c0,0-6.24,3.295-16.56,10.934c-12.746,9.434-23.164,19.206-27.263,23.969
				c-2.986,3.468-5.495,9.704-5.45,15.157c0.046,5.453,3.616,9.186,5.171,8.951c1.556-0.235,0.004-3.093,0.41-6.631
				c0.407-3.538,1.216-7.521,1.216-7.521s-0.297,2.078-0.837,5.238c-0.659,3.851-0.41,6.345,0.807,9.002
				c1.722,3.762,4.128,3.914,4.697,1.693c0.655-2.56-0.341-3.26-0.02-9.17c0.102-1.871,0.936-5.609,0.936-5.609
				s-0.385,1.975-0.782,5.296c-0.397,3.32,2.051,8.699,3.672,8.293c1.621-0.406,1.727-3.15,1.841-6.1
				c0.115-2.951,0.705-6.572,0.705-6.572s2.597-0.467,6.883-4.341c4.285-3.875,5.9-6.159,5.9-6.159s29.49-12.504,38.465-16.459
				c8.976-3.955,23.214-10.445,19.968-21.962c-3.246-11.516-31.339-16.123-31.339-16.123L195.235,118.944z"/>
			<path style="fill:#FFFFFF;" d="M84.132,138.811c0,0,1.346-2.141,8.1-13.543c6.754-11.401,19.402-28.307,19.402-28.307
				s1.102-7.661,2.424-11.201c1.323-3.54,3.117-14.541,5.453-14.552c2.336-0.011,3.028,3.081,3.202,5.349
				c0.173,2.268-0.082,8.551-0.082,8.551s4.407-1.274,9.624-2.901c4.275-1.333,9.519-1.802,10.233-0.358
				c1.627,3.289-12.338,7.766-12.338,7.766s6.202-1.393,7.034,1.401c0.833,2.794-4.554,4.728-4.554,4.728s5.474-1.711,6.046,1.014
				c0.572,2.725-4.222,4.66-7.143,5.675c-2.922,1.015-7.697,2.11-7.697,2.11s-6.345,17.309-13.902,37.925
				c-6.89,18.799-17.021,28.608-28.026,26.694c-18.398-3.2-10.839-31.528-10.839-31.528L84.132,138.811z"/>
		</g>
		
			<path style="fill:none;stroke:#263238;stroke-width:2;stroke-linecap:round;stroke-linejoin:round;stroke-miterlimit:11.9056;" d="
			M82.233,144.162c0,0,3.245-7.492,9.998-18.893c6.754-11.401,19.402-28.307,19.402-28.307s1.102-7.661,2.424-11.201
			c1.323-3.54,3.117-14.541,5.453-14.552c2.336-0.011,3.028,3.081,3.202,5.349c0.173,2.268-0.082,8.551-0.082,8.551
			s4.407-1.274,9.624-2.901c4.275-1.333,9.519-1.802,10.233-0.358c1.627,3.289-12.338,7.766-12.338,7.766s6.202-1.393,7.034,1.401
			c0.833,2.794-4.554,4.728-4.554,4.728s5.474-1.711,6.046,1.014c0.572,2.725-4.222,4.66-7.143,5.675
			c-2.922,1.015-7.697,2.11-7.697,2.11s-6.345,17.309-13.902,37.925c-6.89,18.799-17.021,28.608-28.026,26.694
			c-18.398-3.2-10.481-33.464-10.481-33.464"/>
		
			<path style="fill:none;stroke:#263238;stroke-width:2;stroke-linecap:round;stroke-linejoin:round;stroke-miterlimit:11.9056;" d="
			M199.134,116.628c0,0-10.139,5.611-20.459,13.249c-12.746,9.434-23.164,19.206-27.263,23.969
			c-2.986,3.468-5.495,9.704-5.45,15.157c0.046,5.453,3.616,9.186,5.171,8.951c1.556-0.235,0.004-3.093,0.41-6.631
			c0.407-3.538,1.216-7.521,1.216-7.521s-0.297,2.078-0.837,5.238c-0.659,3.851-0.41,6.345,0.807,9.002
			c1.722,3.762,4.128,3.914,4.697,1.693c0.655-2.56-0.341-3.26-0.02-9.17c0.102-1.871,0.936-5.609,0.936-5.609
			s-0.385,1.975-0.782,5.296c-0.397,3.32,2.051,8.699,3.672,8.293c1.621-0.406,1.727-3.15,1.841-6.1
			c0.115-2.951,0.705-6.572,0.705-6.572s2.597-0.467,6.883-4.341c4.285-3.875,5.9-6.159,5.9-6.159s29.49-12.504,38.465-16.459
			c8.976-3.955,23.214-10.445,19.968-21.962c-3.246-11.516-34.339-16.123-34.339-16.123"/>
	</g>
</g>
<g id="Character_1">
	<g>
		<g>
			
				<path style="fill:#FFFFFF;stroke:#263238;stroke-width:2;stroke-linecap:round;stroke-linejoin:round;stroke-miterlimit:11.9056;" d="
				M405.097,102.181c-4.13,1.025-23.579,1.586-27.08-1.43c-3.5-3.015,4.217-4.903,9.29-5.504c-3.898-1.539-17-0.041-16.525-4.19
				c0.329-2.87,10.022-4.045,10.022-4.045c-4.944-1.557-11.031-1.843-10.283-5.087c0.748-3.244,13.035-1.272,14.707-0.525
				c-3.553-2.35-8.095-4.316-5.785-6.624c2.31-2.308,18.803,0.178,29.109,9.601"/>
			
				<path style="fill:#FFFFFF;stroke:#263238;stroke-width:2;stroke-linecap:round;stroke-linejoin:round;stroke-miterlimit:11.9056;" d="
				M387.307,95.247c2.646-2.695,8.207-5.299,11.121-3.948"/>
			
				<line style="fill:#FFFFFF;stroke:#263238;stroke-width:2;stroke-linecap:round;stroke-linejoin:round;stroke-miterlimit:11.9056;" x1="385.229" y1="81.401" x2="389.655" y2="82.914"/>
			
				<line style="fill:#FFFFFF;stroke:#263238;stroke-width:2;stroke-linecap:round;stroke-linejoin:round;stroke-miterlimit:11.9056;" x1="380.805" y1="87.013" x2="385.96" y2="87.644"/>
		</g>
		<path style="fill:#FF367C;" d="M358.077,71.209c-12.766,0-30.295,11.512-29.617,28.768c0,4.256-0.83,6.021-5.872,9.021
			c7.404,0,15.575,0,15.575,0l0.468-2.213l0.426,2.213h48.128c2.553-6.383,0.402-11.892-3.246-15.776
			C380.29,89.338,377.481,71.973,358.077,71.209z"/>
		<g>
			<path style="fill:#FFFFFF;" d="M392.089,452.836v-0.803h-40.567v22.543h69.114C420.636,463.706,392.089,452.836,392.089,452.836z
				"/>
			
				<path style="fill:none;stroke:#263238;stroke-width:2;stroke-linecap:round;stroke-linejoin:round;stroke-miterlimit:11.9056;" d="
				M351.522,453.601v20.974h69.114c0-10.87-28.547-21.739-28.547-21.739"/>
			
				<line style="fill:none;stroke:#FF367C;stroke-width:2;stroke-linecap:round;stroke-linejoin:round;stroke-miterlimit:11.9056;" x1="398.858" y1="460.832" x2="409.125" y2="455.236"/>
			
				<line style="fill:none;stroke:#FF367C;stroke-width:2;stroke-linecap:round;stroke-linejoin:round;stroke-miterlimit:11.9056;" x1="402.972" y1="462.923" x2="413.239" y2="457.327"/>
		</g>
		<g>
			<path style="fill:#FFFFFF;" d="M356.934,453.217v-5.27h-40.567v27.01h69.114C385.481,464.087,356.934,453.217,356.934,453.217z"
				/>
			
				<path style="fill:none;stroke:#263238;stroke-width:2;stroke-linecap:round;stroke-linejoin:round;stroke-miterlimit:11.9056;" d="
				M316.367,453.982v20.974h69.114c0-10.87-28.547-21.739-28.547-21.739"/>
			
				<line style="fill:none;stroke:#FF367C;stroke-width:2;stroke-linecap:round;stroke-linejoin:round;stroke-miterlimit:11.9056;" x1="363.703" y1="461.213" x2="373.97" y2="455.617"/>
			
				<line style="fill:none;stroke:#FF367C;stroke-width:2;stroke-linecap:round;stroke-linejoin:round;stroke-miterlimit:11.9056;" x1="367.817" y1="463.304" x2="378.084" y2="457.708"/>
		</g>
		<path style="fill:#FFFFFF;" d="M375.03,93.222c0,9.37-7.59,16.95-16.95,16.95c-5.16,0-9.78-2.3-12.89-5.94
			c-2.53-2.96-4.06-6.81-4.06-11.01c0-9.36,7.59-16.95,16.95-16.95c7.93,0,14.58,5.44,16.44,12.79
			C374.85,90.392,375.03,91.792,375.03,93.222z"/>
		<path style="fill:#FFC051;" d="M410.84,173.592c0,24.39-16.54,44.91-39.02,50.95c-4.38,1.18-8.99,1.81-13.74,1.81
			c-29.14,0-52.76-23.62-52.76-52.76c0-18.94,9.98-35.55,24.97-44.85c5.28-3.29,11.19-5.66,17.51-6.91l4.49,3.55l1.11,0.88
			l8.76,18.68l3.9-15.25l0.96-3.73l3.04-3.77c3.11,0.73,6.11,1.73,8.98,2.98c0.01,0,0.01,0,0.01,0
			c15.35,6.65,26.91,20.38,30.56,37.08c0,0,0,0,0.01,0C410.42,165.902,410.84,169.702,410.84,173.592z"/>
		
			<path style="fill:none;stroke:#263238;stroke-width:2;stroke-linecap:round;stroke-linejoin:round;stroke-miterlimit:11.9056;" d="
			M394.843,257.727"/>
		<path style="fill:#263238;" d="M396.375,215.37c0,0-2.187,110.946-1.676,122.105c0.511,11.159-5.728,110.421-5.728,110.421
			h-29.617l3.847-93.606l0.862-20.964l3.207-69.351l13.537-12.905L396.375,215.37z"/>
		<path style="fill:#263238;" d="M390.282,215.37c-1.056,0.351-71.101,0-71.101,0c-14.774,14.393-22.252,44.339-5.401,59.807
			c-3.064,16.489,0,172.719,0,172.719h45.574l7.915-183.921l26.723-19.56C393.991,244.417,391.337,215.02,390.282,215.37z"/>
		
			<polyline style="fill:none;stroke:#FF367C;stroke-width:2;stroke-linecap:round;stroke-linejoin:round;stroke-miterlimit:11.9056;" points="
			313.779,447.897 359.354,447.897 367.268,263.976 379.762,254.832 		"/>
		<path style="fill:#FFFFFF;" d="M358.15,163.473l47.938,8.911L393.167,241.9l-47.874-19.435l6.349-23.978L358.15,163.473z"/>
		<path style="fill:#FF367C;" d="M368.539,169.34l47.938,8.911l-12.921,69.516l-47.874-7.507l6.349-35.906L368.539,169.34z"/>
		<g>
			
				<path style="fill:#FFFFFF;stroke:#263238;stroke-width:2;stroke-linecap:round;stroke-linejoin:round;stroke-miterlimit:11.9056;" d="
				M381.585,223.087c-12.214-0.477-23.523-2.47-23.523-2.47l-5.515-18.271c5.288-2.089,13.355-7.376,19.513-8.184
				c6.157-0.808,15.155-2.546,17.485-2.803c4.746-0.523,3.331,4.801,0.374,6.615c-2.958,1.814-10.491,1.444-10.365,3.189
				c0.125,1.744,15.934-1.395,18.737-2.516c2.313-0.925,4.55,2.96,2.299,5.921c1.961-0.708,3.582-2.39,4.341-1.437
				c0.759,0.953,2.441,5.438-3.782,9.137c0.841-0.056,0.834-0.199,1.956-0.423c1.121-0.224,2.516,4.08-4.564,8
				C391.758,223.601,387.49,223.318,381.585,223.087z"/>
			
				<path style="fill:#FFFFFF;stroke:#263238;stroke-width:2;stroke-linecap:round;stroke-linejoin:round;stroke-miterlimit:11.9056;" d="
				M400.59,204.568c-2.412,1.254-6.84,2.992-11.044,2.936"/>
			
				<path style="fill:#FFFFFF;stroke:#263238;stroke-width:2;stroke-linecap:round;stroke-linejoin:round;stroke-miterlimit:11.9056;" d="
				M401.149,212.268c-2.971,1.289-5.456,2.186-9.548,2.523"/>
		</g>
		<path style="fill:#FFC051;" d="M347.8,121.832l4.49,3.55l-0.38,0.88l-33.55,79.31l43.46-10.36l10,29.33l0.21,0.63
			c0,0-85.95,40.85-90.04,3.59c-3.43-31.3,7.92-86.18,49.17-102.93c4.98-2.02,10.39-3.49,16.27-4.29L347.8,121.832z"/>
		<path style="fill:#FFC051;" d="M370.06,122.192l-3.04,3.77l-0.96,3.73l41.529,25.655c0,0,2.021,6.905,2.031,6.905
			c3.606-1.169,36.968-16.063,50.415-32.914c25.325-31.736-49.759-49.518-49.759-49.518l-6.57,25.933l23.989,12.189
			c0,0-8.464,0.03-41.104,2.08c-4.59,0.29-9.66,0.52-15.3,0.65h-0.01L370.06,122.192z"/>
		
			<path style="fill:none;stroke:#263238;stroke-width:2;stroke-linecap:round;stroke-linejoin:round;stroke-miterlimit:11.9056;" d="
			M281.992,228.762c4.085,37.257,90.042-3.594,90.042-3.594l-10.213-29.957l-43.465,10.362"/>
		
			<line style="fill:none;stroke:#263238;stroke-width:2;stroke-linecap:round;stroke-linejoin:round;stroke-miterlimit:11.9056;" x1="324.146" y1="204.192" x2="330.079" y2="177.863"/>
		
			<path style="fill:none;stroke:#263238;stroke-width:2;stroke-linecap:round;stroke-linejoin:round;stroke-miterlimit:11.9056;" d="
			M353.4,126.262c0,0-0.57-0.02-1.49,0c-2.59,0.05-7.99,0.42-11.54,2.44c-4.81,2.74-9.22,9.03-9.22,9.03s-1.64-4.46-0.86-8.99
			c0.16-0.98,0.44-1.97,0.87-2.91c0.18-0.39,0.38-0.77,0.62-1.15c3.42-5.45,11.1-6.74,11.1-6.74l4.55,3.6l0.37,0.29l4.49,3.55
			L353.4,126.262z"/>
		
			<path style="fill:none;stroke:#263238;stroke-width:2;stroke-linecap:round;stroke-linejoin:round;stroke-miterlimit:11.9056;" d="
			M388.53,130.032c0,0-2.96-2.95-8.27-4.56c-0.39-0.12-0.79-0.22-1.21-0.3c0,0,0,0-0.01,0c-5.21-1.01-12.02,0.79-12.02,0.79
			l3.04-3.77l1.22-1.52h0.01l4.15-5.15c0,0,6.1-0.62,10.64,3.94c0.18,0.18,0.35,0.37,0.51,0.56
			C390.45,124.502,388.53,130.032,388.53,130.032z"/>
		
			<polyline style="fill:none;stroke:#263238;stroke-width:2;stroke-linecap:round;stroke-linejoin:round;stroke-miterlimit:11.9056;" points="
			353.4,126.262 362.16,144.942 366.06,129.692 367.02,125.962 		"/>
		<path style="fill:#263238;" d="M367.016,154.781c0,1.975-1.602,3.577-3.577,3.577c-1.975,0-3.577-1.601-3.577-3.577
			c0-1.975,1.601-3.577,3.577-3.577C365.414,151.204,367.016,152.805,367.016,154.781z"/>
		<path style="fill:#FF367C;" d="M374.52,89.062c-1.49-0.35-4.68-1.24-7.05-2.66c-3.64-2.18-6.09-5.31-6.09-5.31
			s-2.24,4.9-7.36,9.43c-4.8,4.25-11.62,6.99-11.62,6.99l2.79,6.72c-2.53-2.96-4.06-6.81-4.06-11.01c0-9.36,7.59-16.95,16.95-16.95
			C366.01,76.272,372.66,81.712,374.52,89.062z"/>
		
			<path style="fill:none;stroke:#263238;stroke-width:2;stroke-linecap:round;stroke-linejoin:round;stroke-miterlimit:11.9056;" d="
			M375.03,93.222c0,9.37-7.59,16.95-16.95,16.95c-5.16,0-9.78-2.3-12.89-5.94c-2.53-2.96-4.06-6.81-4.06-11.01
			c0-9.36,7.59-16.95,16.95-16.95c7.93,0,14.58,5.44,16.44,12.79C374.85,90.392,375.03,91.792,375.03,93.222z"/>
		
			<path style="fill:none;stroke:#263238;stroke-width:2;stroke-linecap:round;stroke-linejoin:round;stroke-miterlimit:11.9056;" d="
			M400.607,142.366c6.43,8.743,10.229,19.542,10.229,31.227"/>
		
			<path style="fill:none;stroke:#FF367C;stroke-width:2;stroke-linecap:round;stroke-linejoin:round;stroke-miterlimit:11.9056;" d="
			M341.13,247.767c-5.521,12.124-21.861,12.368-21.861,12.368"/>
		
			<line style="fill:none;stroke:#FF367C;stroke-width:2;stroke-linecap:round;stroke-linejoin:round;stroke-miterlimit:11.9056;" x1="327.113" y1="437.083" x2="327.113" y2="259.57"/>
		<path style="fill:#FF367C;" d="M353.459,98.843c-0.047-1.049-0.927-1.862-1.965-1.816c-1.038,0.047-1.842,0.935-1.795,1.984
			c0.047,1.049,0.927,1.862,1.965,1.816C352.703,100.78,353.506,99.892,353.459,98.843z"/>
		<path style="fill:#263238;" d="M357.775,95.245c0.146-1.011-0.555-1.949-1.567-2.095c-1.011-0.146-1.949,0.555-2.095,1.567
			c-0.146,1.011,0.555,1.949,1.567,2.095C356.691,96.958,357.629,96.256,357.775,95.245z"/>
		<path style="fill:#263238;" d="M368.99,94.413c0.145-1.011-0.556-1.95-1.567-2.095c-1.011-0.146-1.95,0.555-2.096,1.567
			c-0.146,1.011,0.555,1.949,1.567,2.095C367.906,96.126,368.844,95.425,368.99,94.413z"/>
		<path style="fill:#263238;" d="M358.854,104.167c0.146-1.011-0.556-1.949-1.567-2.095c-1.011-0.146-1.95,0.556-2.095,1.567
			c-0.146,1.011,0.555,1.95,1.567,2.095C357.77,105.88,358.708,105.178,358.854,104.167z"/>
		
			<path style="fill:none;stroke:#263238;stroke-width:2;stroke-linecap:round;stroke-linejoin:round;stroke-miterlimit:11.9056;" d="
			M361.761,93.501l2.794,6.216l-3.788,0.184"/>
	</g>
</g>
</svg>
